<svg width="50" height="50" viewBox="0 0 50 50" fill="none" xmlns="http://www.w3.org/2000/svg">
<path d="M16.6666 22.9167L10.4166 12.5L4.16663 22.9167" stroke="#777777" stroke-width="2" stroke-linecap="round" stroke-linejoin="round"/>
<path d="M10.4166 29.1666C12.0742 29.1666 13.6639 28.5081 14.836 27.336C16.0081 26.1639 16.6666 24.5742 16.6666 22.9166H4.16663C4.16663 24.5742 4.82511 26.1639 5.99721 27.336C7.16931 28.5081 8.75902 29.1666 10.4166 29.1666V29.1666Z" stroke="#777777" stroke-width="2" stroke-linecap="round" stroke-linejoin="round"/>
<path d="M45.8334 22.9167L39.5834 12.5L33.3334 22.9167" stroke="#777777" stroke-width="2" stroke-linecap="round" stroke-linejoin="round"/>
<path d="M39.5834 29.1666C41.241 29.1666 42.8307 28.5081 44.0028 27.336C45.1749 26.1639 45.8334 24.5742 45.8334 22.9166H33.3334C33.3334 24.5742 33.9919 26.1639 35.164 27.336C36.3361 28.5081 37.9258 29.1666 39.5834 29.1666V29.1666Z" stroke="#777777" stroke-width="2" stroke-linecap="round" stroke-linejoin="round"/>
<path d="M25 6.25V43.75" stroke="#777777" stroke-width="2" stroke-linecap="round" stroke-linejoin="round"/>
<path d="M10.4166 12.5H39.5833" stroke="#777777" stroke-width="2" stroke-linecap="round" stroke-linejoin="round"/>
<path d="M10.4166 12.5H39.5833" stroke="#777777" stroke-width="2" stroke-linecap="round" stroke-linejoin="round"/>
<path d="M39.5833 43.75H10.4166" stroke="#777777" stroke-width="2" stroke-linecap="round" stroke-linejoin="round"/>
</svg>
