<svg width="50" height="50" viewBox="0 0 50 50" fill="none" xmlns="http://www.w3.org/2000/svg">
<path d="M8.33329 12.5C9.43836 12.5 10.4982 12.061 11.2796 11.2796C12.061 10.4982 12.5 9.43836 12.5 8.33329C12.5 7.22822 12.061 6.16842 11.2796 5.38701C10.4982 4.60561 9.43836 4.16663 8.33329 4.16663C7.22822 4.16663 6.16842 4.60561 5.38701 5.38701C4.60561 6.16842 4.16663 7.22822 4.16663 8.33329C4.16663 9.43836 4.60561 10.4982 5.38701 11.2796C6.16842 12.061 7.22822 12.5 8.33329 12.5V12.5Z" stroke="#777777" stroke-width="2" stroke-linecap="round" stroke-linejoin="round"/>
<path d="M10.4166 43.75C12.0742 43.75 13.6639 43.0915 14.836 41.9194C16.0081 40.7473 16.6666 39.1576 16.6666 37.5C16.6666 35.8424 16.0081 34.2527 14.836 33.0806C13.6639 31.9085 12.0742 31.25 10.4166 31.25C8.75902 31.25 7.16931 31.9085 5.99721 33.0806C4.82511 34.2527 4.16663 35.8424 4.16663 37.5C4.16663 39.1576 4.82511 40.7473 5.99721 41.9194C7.16931 43.0915 8.75902 43.75 10.4166 43.75V43.75Z" stroke="#777777" stroke-width="2" stroke-linecap="round" stroke-linejoin="round"/>
<path d="M39.5834 45.8334C41.241 45.8334 42.8307 45.1749 44.0028 44.0028C45.1749 42.8307 45.8334 41.241 45.8334 39.5834C45.8334 37.9258 45.1749 36.3361 44.0028 35.164C42.8307 33.9919 41.241 33.3334 39.5834 33.3334C37.9258 33.3334 36.3361 33.9919 35.164 35.164C33.9919 36.3361 33.3334 37.9258 33.3334 39.5834C33.3334 41.241 33.9919 42.8307 35.164 44.0028C36.3361 45.1749 37.9258 45.8334 39.5834 45.8334Z" stroke="#777777" stroke-width="2" stroke-linecap="round" stroke-linejoin="round"/>
<path d="M22.9167 29.1667C25.1268 29.1667 27.2465 28.2887 28.8093 26.7259C30.3721 25.1631 31.25 23.0435 31.25 20.8333C31.25 18.6232 30.3721 16.5036 28.8093 14.9408C27.2465 13.378 25.1268 12.5 22.9167 12.5C20.7066 12.5 18.587 13.378 17.0242 14.9408C15.4613 16.5036 14.5834 18.6232 14.5834 20.8333C14.5834 23.0435 15.4613 25.1631 17.0242 26.7259C18.587 28.2887 20.7066 29.1667 22.9167 29.1667V29.1667Z" stroke="#777777" stroke-width="2" stroke-linecap="round" stroke-linejoin="round"/>
<path d="M35.4167 12.5C36.5217 12.5 37.5815 12.061 38.3629 11.2796C39.1443 10.4982 39.5833 9.43836 39.5833 8.33329C39.5833 7.22822 39.1443 6.16842 38.3629 5.38701C37.5815 4.60561 36.5217 4.16663 35.4167 4.16663C34.3116 4.16663 33.2518 4.60561 32.4704 5.38701C31.689 6.16842 31.25 7.22822 31.25 8.33329C31.25 9.43836 31.689 10.4982 32.4704 11.2796C33.2518 12.061 34.3116 12.5 35.4167 12.5V12.5Z" stroke="#777777" stroke-width="2" stroke-linecap="round" stroke-linejoin="round"/>
<path d="M11.4584 11.4584L15.625 15.625" stroke="#777777" stroke-width="2" stroke-linecap="round" stroke-linejoin="round"/>
<path d="M31.25 12.5L29.1666 14.5833" stroke="#777777" stroke-width="2" stroke-linecap="round" stroke-linejoin="round"/>
<path d="M35.4166 34.8959L29.1666 27.0834" stroke="#777777" stroke-width="2" stroke-linecap="round" stroke-linejoin="round"/>
<path d="M14.5834 32.2917L18.75 28.125" stroke="#777777" stroke-width="2" stroke-linecap="round" stroke-linejoin="round"/>
</svg>
